Description

Sinopse e detalhes

No final do século XVII em pleno Oeste norte-americano vive Spirit, um cavalo que resiste a ser domado pelo homem. Ele se apaixona por uma égua local, chamada Chuva, e desenvolve uma grande amizade com um jovem índio Lakota chamado Pequeno Rio. Juntos eles acompanham a colonização do local onde vivem, percebendo as mudanças que a chegada da civilização fazem em seu dia-a-dia.

Format : Matroska
Format version : Version 2
File size : 995 MiB
Duration : 1h 23mn
Overall bit rate : 1 668 Kbps
Encoded date : UTC 2013-05-03 20:07:30
Writing application : mkvmerge v5.8.0 ('No Sleep / Pillow') built on Sep 2 2012 15:37:04
Writing library : libebml v1.2.3 + libmatroska v1.3.0

Video
ID : 1
Format : AVC
Format/Info : Advanced Video Codec
Format profile : High@L4.1
Format settings, CABAC : Yes
Format settings, ReFrames : 4 frames
Muxing mode : Header stripping
Codec ID : V_MPEG4/ISO/AVC
Duration : 1h 23mn
Bit rate : 418 Kbps
Width : 720 pixels
Height : 304 pixels
Display aspect ratio : 2.35:1
Frame rate mode : Constant
Frame rate : 23.976 fps
Color space : YUV
Chroma subsampling : 4:2:0
Bit depth : 8 bits
Scan type : Progressive
Bits/(Pixel*Frame) : 0.080
Stream size : 250 MiB (25%)
Title : Spirit ( by fantasma )
Writing library : x264 core 130 r2273 b3065e6
Encoding settings : cabac=1 / ref=3 / deblock=1:0:0 / analyse=0x3:0x113 / me=hex / subme=7 / psy=1 / psy_rd=1.00:0.00 / mixed_ref=1 / me_range=16 / chroma_me=1 / trellis=1 / 8x8dct=1 / cqm=0 / deadzone=21,11 / fast_pskip=1 / chroma_qp_offset=-2 / threads=3 / lookahead_threads=1 / sliced_threads=0 / nr=0 / decimate=1 / interlaced=0 / bluray_compat=0 / constrained_intra=0 / bframes=3 / b_pyramid=2 / b_adapt=1 / b_bias=0 / direct=1 / weightb=1 / open_gop=0 / weightp=2 / keyint=240 / keyint_min=23 / scenecut=40 / intra_refresh=0 / rc_lookahead=40 / rc=crf / mbtree=1 / crf=23.0 / qcomp=0.60 / qpmin=0 / qpmax=69 / qpstep=4 / vbv_maxrate=62500 / vbv_bufsize=78125 / crf_max=0.0 / nal_hrd=none / ip_ratio=1.40 / aq=1:1.00
Language : Portuguese
Default : Yes
Forced : No

Audio #1
ID : 2
Format : AC-3
Format/Info : Audio Coding 3
Mode extension : CM (complete main)
Format settings, Endianness : Big
Muxing mode : Header stripping
Codec ID : A_AC3
Duration : 1h 23mn
Bit rate mode : Constant
Bit rate : 384 Kbps
Channel(s) : 6 channels
Channel positions : Front: L C R, Side: L R, LFE
Sampling rate : 48.0 KHz
Bit depth : 16 bits
Compression mode : Lossy
Stream size : 229 MiB (23%)
Title : by fantasma
Language : Portuguese
Default : Yes
Forced : No

Audio #2
ID : 3
Format : AC-3
Format/Info : Audio Coding 3
Mode extension : CM (complete main)
Format settings, Endianness : Big
Muxing mode : Header stripping
Codec ID : A_AC3
Duration : 1h 23mn
Bit rate mode : Constant
Bit rate : 448 Kbps
Channel(s) : 6 channels
Channel positions : Front: L C R, Side: L R, LFE
Sampling rate : 48.0 KHz
Bit depth : 16 bits
Compression mode : Lossy
Stream size : 267 MiB (27%)
Title : by fantasma
Language : English
Default : No
Forced : No

Audio #3
ID : 4
Format : AC-3
Format/Info : Audio Coding 3
Mode extension : CM (complete main)
Format settings, Endianness : Big
Muxing mode : Header stripping
Codec ID : A_AC3
Duration : 1h 23mn
Bit rate mode : Constant
Bit rate : 384 Kbps
Channel(s) : 6 channels
Channel positions : Front: L C R, Side: L R, LFE
Sampling rate : 48.0 KHz
Bit depth : 16 bits
Compression mode : Lossy
Stream size : 229 MiB (23%)
Title : by fantasma
Language : Spanish
Default : No
Forced : No

Text #1
ID : 5
Format : VobSub
Muxing mode : zlib
Codec ID : S_VOBSUB
Codec ID/Info : The same subtitle format used on DVDs
Title : by fantasma
Language : English
Default : No
Forced : No

Text #2
ID : 6
Format : VobSub
Muxing mode : zlib
Codec ID : S_VOBSUB
Codec ID/Info : The same subtitle format used on DVDs
Title : by fantasma
Language : Portuguese
Default : No
Forced : No

Text #3
ID : 7
Format : VobSub
Muxing mode : zlib
Codec ID : S_VOBSUB
Codec ID/Info : The same subtitle format used on DVDs
Title : English - (Director Comments/Normal Size Char)
Language : English
Default : No
Forced : No

Text #4
ID : 8
Format : UTF-8
Codec ID : S_TEXT/UTF8
Codec ID/Info : UTF-8 Plain Text
Title : Credito
Language : Portuguese
Default : Yes
Forced : No

Menu
00:00:00.000 : en:Chapter 01
00:07:30.001 : en:Chapter 02
00:11:27.501 : en:Chapter 03
00:18:12.235 : en:Chapter 04
00:20:37.235 : en:Chapter 05
00:23:19.002 : en:Chapter 06
00:25:32.502 : en:Chapter 07
00:30:07.502 : en:Chapter 08
00:35:21.002 : en:Chapter 09
00:38:44.002 : en:Chapter 10
00:41:51.169 : en:Chapter 11
00:43:48.169 : en:Chapter 12
00:48:06.003 : en:Chapter 13
00:53:24.270 : en:Chapter 14
00:57:14.270 : en:Chapter 15
01:00:43.738 : en:Chapter 16
01:04:20.738 : en:Chapter 17
01:11:08.272 : en:Chapter 18
01:14:00.772 : en:Chapter 19
01:16:05.772 : en:Chapter 20
01:23:21.772 : en:Chapter 21